<?xml version="1.0" encoding="utf-8"?>
<!-- Generator: Adobe Illustrator 24.0.1, SVG Export Plug-In . SVG Version: 6.00 Build 0)  -->
<svg version="1.1" xmlns="http://www.w3.org/2000/svg" xmlns:xlink="http://www.w3.org/1999/xlink" x="0px" y="0px"
	 viewBox="0 0 313.6 329.1" style="enable-background:new 0 0 313.6 329.1;" xml:space="preserve">
<style type="text/css">
	.st0{display:none;}
	.st1{display:inline;fill:#161616;stroke:#000000;stroke-miterlimit:10;}
	.st2{fill:#FF960B;}
	.st3{fill:#FFFFFF;}
	.st4{fill:#515151;}
	.st5{fill:#FFFCF2;}
	.st6{fill:#3B4C42;}
	.st7{fill:#F2E500;}
	.st8{fill:#6B886A;}
	.st9{fill:#779376;}
</style>
<g id="Ne_pas_altérer" class="st0">
	<rect x="0" y="0.5" class="st1" width="1295.4" height="329.1"/>
</g>
<g id="Calque_1">
	<g>
		<circle class="st5" cx="158.2" cy="167.3" r="128.7"/>
		<path class="st6" d="M158.2,38.6c71.1,0,128.7,57.6,128.7,128.7s-57.6,128.7-128.7,128.7S29.5,238.3,29.5,167.3
			S87.1,38.6,158.2,38.6 M158.2,30.2c-75.6,0-137.1,61.5-137.1,137.1s61.5,137.1,137.1,137.1s137.1-61.5,137.1-137.1
			S233.8,30.2,158.2,30.2L158.2,30.2z"/>
		<path class="st7" d="M144.3,51.5c3,3.8,9.4,14.3,1.3,29c-0.5,1-1.9,1.1-2.5,0.2c-2.9-4.2-9-15.6-1.2-29
			C142.5,50.8,143.7,50.7,144.3,51.5z"/>
		<path class="st7" d="M86.4,186.5c0.9-2.3,4.1-8,12.8-8.1c0.6,0,1,0.6,0.7,1.1c-1.2,2.4-4.7,8.1-12.9,8.1
			C86.6,187.5,86.2,187,86.4,186.5z"/>
		<path class="st7" d="M199.9,160.1c4.6-1.6,17-4.1,28.3,8.7c0.7,0.8,0.4,2.1-0.7,2.4c-5,1.4-18,3.3-28.3-8.8
			C198.6,161.7,198.9,160.5,199.9,160.1z"/>
		<path class="st7" d="M219.2,95.8c3.4-3.8,13.2-12.3,30.2-6.7c1.1,0.4,1.5,1.7,0.7,2.5c-3.9,3.8-14.6,12.1-30.3,6.6
			C218.8,97.9,218.5,96.6,219.2,95.8z"/>
		<path class="st7" d="M203.1,259.1c-3.6,1.5-12.3,6.5-12.6,20.4c0,0.9,0.9,1.5,1.7,1.1c3.7-1.9,12.5-7.6,12.5-20.4
			C204.7,259.3,203.9,258.8,203.1,259.1z"/>
		<path class="st7" d="M124.7,123.5c1.3-3.3,5.9-11.3,18.3-11.4c0.8,0,1.4,0.8,1,1.5c-1.7,3.4-6.8,11.5-18.4,11.3
			C125,124.9,124.5,124.2,124.7,123.5z"/>
		<path class="st8" d="M149.8,83.1c2.6-8.4,11.9-29.1,42.4-32.1c2-0.2,3.5,1.7,2.8,3.6c-3.3,8.8-14.1,29.8-42.6,32
			C150.6,86.7,149.2,84.9,149.8,83.1z"/>
		<path class="st8" d="M233.2,167.5c5.4-5.1,20.9-16.1,44.3-5.5c1.5,0.7,1.9,2.7,0.6,3.8c-6.1,5-22.8,15.7-44.4,5.3
			C232.4,170.5,232.1,168.6,233.2,167.5z"/>
		<path class="st8" d="M59.5,231.8c-1.1-7.4-1.5-26.5,20.7-39.9c1.4-0.9,3.3,0,3.5,1.7c0.7,7.9,0,27.8-20.9,39.8
			C61.4,234.2,59.7,233.3,59.5,231.8z"/>
		<path class="st8" d="M52.6,169.4c5.1-0.5,18.2,0,26.5,15.8c0.5,1-0.1,2.3-1.3,2.3c-5.4,0.1-19.1-1.1-26.4-15.9
			C50.9,170.6,51.6,169.5,52.6,169.4z"/>
		<path class="st8" d="M209.2,71.2c2.4,4.6,7.1,17-4.3,31c-0.7,0.9-2.2,0.8-2.7-0.3c-2.3-5-6.5-18.3,4.4-31
			C207.3,70,208.7,70.2,209.2,71.2z"/>
		<path class="st8" d="M159.9,172.5c-0.8-3.5-1.8-12.6,8.3-19.9c0.7-0.5,1.6-0.1,1.7,0.7c0.6,3.8,1.1,13.3-8.4,19.9
			C161,173.6,160.1,173.2,159.9,172.5z"/>
		<path class="st8" d="M91.6,104.7c-4.8-0.7-16.7-3.9-21-20.2c-0.3-1.1,0.6-2.1,1.7-1.8c5,1,17.3,5.1,20.9,20.3
			C93.4,103.9,92.6,104.8,91.6,104.7z"/>
		<path class="st8" d="M187.9,281.6c-4.8-7.4-19.5-24.8-49.8-19.4c-2,0.4-3,2.6-1.8,4.2c5.6,7.6,21.8,24.8,49.9,19.2
			C188,285.3,188.9,283.1,187.9,281.6z"/>
		<g>
			<path class="st6" d="M92.1,68.1l4.5-1.1l9.2,37.9l-4.5,1.1L92.1,68.1z"/>
			<path class="st6" d="M127.6,76.3l5.3,22.1l-4.5,1.1l-1.1-4.5c-1.2,1.9-3.4,3.3-6.6,4.1c-5.8,1.4-10.7-1.2-12-6.4
				c-1.3-5.3,1.8-9.7,7.9-11.1c3-0.7,5.5-0.6,7.5,0.6l-1.1-4.7c-1-4.2-3.5-5.9-7.4-4.9c-3.6,0.9-4.9,3-4.4,7l-4.5,1.1
				c-0.9-6.4,1.7-10.6,7.9-12.1C121.3,66.9,126,69.7,127.6,76.3z M125.7,88.5c-0.8-3.3-3.5-4.7-7.7-3.7c-3.7,0.9-5.6,3.5-4.8,6.7
				c0.8,3.2,3.6,4.6,7.3,3.7C124.7,94.2,126.5,91.7,125.7,88.5z"/>
			<path class="st6" d="M54.5,134.8l3-9.6c4-12.6,14-18.1,26.2-14.2c12.6,4,16.5,12.4,13.5,25.6l-7.9-2.5c1.9-8.5-0.2-13.2-8-15.6
				c-7.6-2.4-13.4,1-16.1,9.5l-2.9,9.2c-2.7,8.5,0.2,14.7,7.8,17.1c7.9,2.5,12.2-0.5,15.5-8.4l7.9,2.5c-5.1,12.6-13.2,17-25.6,13.1
				C55.7,157.7,50.5,147.4,54.5,134.8z"/>
			<path class="st6" d="M150.1,150.8v40.6h-8.3v-8.2c-2.9,2.9-7.2,4.3-13.1,4.3c-10.7,0-18.1-6.6-18.1-16.2
				c0-9.8,7.2-16.1,18.4-16.1c5.5,0,9.7,1.3,12.8,4.1v-8.6c0-7.7-3.7-11.7-10.8-11.7c-6.6,0-9.8,3.2-10.7,10.3H112
				c1.1-11.6,7.5-17.7,18.8-17.7C143.2,131.8,150.1,138.7,150.1,150.8z M141.7,171.2c0-6.1-4.1-9.6-11.8-9.6
				c-6.9,0-11.2,3.7-11.2,9.6c0,5.8,4.3,9.5,11.2,9.5C137.6,180.7,141.7,177.2,141.7,171.2z"/>
			<path class="st6" d="M195.6,108.2l8,34.4l-8,1.9l-7.9-33.9c-1.8-7.8-6.1-10.8-12.8-9.3c-6.6,1.5-10,7.1-8.4,14l6.8,29.2l-8,1.9
				l-12.4-53.2l8-1.9l2.4,10.4c2.1-4.1,5.9-7.2,10.9-8.3C185,90.9,192.8,96.2,195.6,108.2z"/>
			<path class="st6" d="M216.9,125.2l2-6.4c4-12.8,14.1-18,26.2-14.2c12.1,3.8,17.3,14,13.3,26.7l-2,6.4c-4,12.7-14,18.1-26.2,14.3
				C218.1,148,212.8,137.9,216.9,125.2z M248.6,135l1.9-6c2.6-8.4-0.3-14.6-7.7-17c-7.5-2.4-13.4,1-16.1,9.5l-1.9,6
				c-2.7,8.5,0.2,14.7,7.8,17.1C240,146.9,245.9,143.4,248.6,135z"/>
			<path class="st6" d="M142.4,225.5l0.4,5.2c1.1,14-6.2,23.3-19.2,24.3c-5.9,0.5-10.9-1.1-14.4-4.3l1.9,24.1l-8.7,0.7l-5.9-76.6
				l8.7-0.7l1,12.7c2.9-3.6,7.7-6,13.6-6.4C132.7,203.4,141.3,211.6,142.4,225.5z M133.7,226.6c-0.7-9.4-5.7-14.4-14.1-13.7
				c-8.5,0.7-12.9,6.3-12.1,15.7l0.4,4.7c0.7,9.4,5.9,14.4,14.4,13.8c8.4-0.6,12.5-6.4,11.8-15.8L133.7,226.6z"/>
			<path class="st6" d="M166.7,225.7l-0.8,6.8c-1,8.9,2.9,14.4,10.8,15.3c8.3,1,12.1-2.7,13.8-11.1l8.2,0.9
				c-2.6,13.3-10.1,19.1-22.9,17.7c-12.7-1.5-19.7-10.6-18.2-23.7l1.9-16.7c1.5-13.1,10.4-20.4,23.1-18.9
				c12.8,1.5,19.6,10.4,18.1,23.3l-1.2,10.1L166.7,225.7z M167.9,215.7l-0.4,3.5l24.8,2.9l0.5-3.9c1-8.5-3-14-10.8-14.9
				C174,202.4,168.9,206.9,167.9,215.7z M187.4,191.6l-8.4-1l7.5-17.7l8.4,1L187.4,191.6z"/>
			<path class="st6" d="M225.3,219.2l0.6,6.9c0.8,8.9,5.8,13.5,13.7,12.8c8.3-0.8,11.3-5.1,11.2-13.7l8.2-0.7
				c0.1,13.6-6,20.8-18.8,22c-12.7,1.2-21.4-6.3-22.6-19.5l-1.5-16.7c-1.2-13.1,6-22.1,18.7-23.2c12.8-1.2,21.3,6.2,22.5,19.1
				l0.9,10.1L225.3,219.2z M224.4,209.1l0.3,3.5l24.9-2.3l-0.4-3.9c-0.8-8.5-5.8-13.1-13.6-12.3
				C227.6,194.8,223.6,200.2,224.4,209.1z"/>
		</g>
	</g>
</g>
<g id="Mode_Isolation">
</g>
</svg>
